<?xml version="1.0" standalone="no"?>
<!DOCTYPE svg PUBLIC "-//W3C//DTD SVG 20010904//EN"
 "http://www.w3.org/TR/2001/REC-SVG-20010904/DTD/svg10.dtd">
<svg version="1.0" xmlns="http://www.w3.org/2000/svg"
 width="4394.000000pt" height="3195.000000pt" viewBox="0 0 4394.000000 3195.000000"
 preserveAspectRatio="xMidYMid meet">

<g transform="translate(0.000000,3195.000000) scale(0.100000,-0.100000)"
fill="#000000" stroke="none">
<path d="M35375 14764 c-460 -82 -852 -471 -950 -944 -37 -177 -28 -407 21
-578 114 -393 460 -729 849 -823 177 -42 405 -44 578 -4 222 52 416 165 592
346 263 271 371 594 324 974 -62 504 -489 948 -990 1030 -116 18 -317 18 -424
-1z"/>
<path d="M9310 14074 c-192 -41 -383 -197 -474 -387 -50 -103 -66 -181 -66
-322 0 -141 16 -219 66 -322 93 -194 283 -347 484 -389 114 -24 291 -15 395
20 107 37 215 105 300 191 83 84 136 170 172 280 24 71 27 95 27 220 0 125 -3
149 -27 220 -36 110 -89 196 -172 280 -114 115 -230 180 -375 211 -82 17 -245
17 -330 -2z"/>
<path d="M10 9830 l0 -4120 580 0 580 0 2 2910 3 2910 1129 -1579 c621 -869
1132 -1584 1136 -1590 4 -8 72 -2 221 20 118 17 215 31 215 32 1 1 455 670
1009 1487 553 817 1013 1492 1021 1500 12 12 14 -380 14 -2838 l0 -2852 585 0
585 0 0 4120 0 4120 -359 0 -360 0 -24 -32 c-13 -18 -628 -928 -1367 -2023
-739 -1094 -1348 -1995 -1354 -2001 -8 -9 -391 523 -1456 2022 l-1445 2033
-357 1 -358 0 0 -4120z"/>
<path d="M28100 9820 l0 -4110 1105 0 1105 0 0 1555 0 1555 1365 0 1365 0 0
25 c0 14 -45 404 -100 866 -55 463 -100 843 -100 845 0 2 -569 4 -1265 4
l-1265 0 0 820 0 820 1671 0 1672 0 -6 38 c-3 20 -50 409 -103 865 l-98 827
-2673 0 -2673 0 0 -4110z"/>
<path d="M38515 11516 c-577 -139 -1055 -254 -1062 -256 -7 -3 388 -557 938
-1318 l950 -1312 -949 -1448 c-521 -796 -952 -1453 -956 -1459 -6 -10 244 -13
1236 -13 l1243 1 376 622 c206 342 379 622 384 622 4 0 183 -280 397 -622
l389 -623 1235 0 c985 0 1234 3 1228 13 -4 6 -451 633 -993 1392 -542 759
-985 1387 -985 1395 0 8 431 679 959 1490 527 811 973 1499 992 1528 l34 52
-1219 0 -1219 0 -442 -700 c-244 -385 -446 -700 -449 -700 -4 0 -232 349 -506
776 -275 427 -507 784 -515 794 -15 17 -70 5 -1066 -234z"/>
<path d="M13865 11734 c-16 -2 -79 -9 -140 -15 -659 -66 -1261 -343 -1700
-784 -457 -458 -735 -1071 -827 -1820 -21 -175 -18 -792 5 -970 138 -1058 643
-1841 1461 -2266 377 -195 746 -291 1238 -319 286 -17 555 7 918 81 476 98
868 233 1163 401 83 48 107 66 104 79 -17 63 -344 819 -354 819 -8 0 -39 -13
-71 -29 -98 -50 -314 -137 -469 -191 -373 -129 -699 -177 -1129 -168 -240 6
-356 23 -526 79 -565 184 -972 700 -1117 1416 -56 276 -72 684 -37 948 69 517
262 949 571 1274 286 301 655 460 1110 478 159 6 403 -8 570 -33 228 -33 548
-130 925 -279 107 -43 201 -78 208 -79 8 0 77 154 182 409 l169 410 -52 32
c-238 150 -607 294 -1012 396 -413 104 -577 128 -905 132 -140 2 -268 1 -285
-1z"/>
<path d="M23555 11733 c-454 -39 -812 -137 -1160 -317 -516 -266 -897 -658
-1164 -1196 -235 -474 -341 -962 -341 -1571 0 -630 118 -1163 363 -1642 363
-712 1000 -1200 1792 -1376 275 -61 638 -89 943 -72 501 28 881 125 1268 325
508 262 888 648 1154 1171 168 330 275 694 327 1115 25 206 25 752 0 960 -93
755 -369 1363 -827 1820 -214 215 -420 360 -705 501 -314 154 -647 242 -1050
279 -101 9 -506 11 -600 3z m619 -1013 c355 -61 659 -231 883 -492 342 -400
514 -924 513 -1571 0 -430 -79 -799 -240 -1125 -288 -580 -724 -903 -1315
-973 -124 -15 -420 -6 -535 15 -451 82 -784 306 -1043 701 -163 250 -275 565
-334 945 -26 165 -26 665 0 830 80 514 283 939 597 1250 254 251 555 392 940
440 119 14 398 4 534 -20z"/>
<path d="M8910 8645 l0 -2935 590 0 590 0 0 2935 0 2935 -590 0 -590 0 0
-2935z"/>
<path d="M17160 8645 l0 -2935 580 0 580 0 0 1944 0 1945 113 99 c478 421
1062 761 1524 887 136 38 300 65 387 65 38 0 56 4 56 13 0 6 -56 215 -123 462
l-123 450 -55 3 c-123 8 -359 -43 -556 -119 -369 -142 -894 -456 -1266 -756
-44 -35 -82 -63 -86 -63 -4 0 -90 212 -191 470 l-184 470 -328 0 -328 0 0
-2935z"/>
<path d="M34500 8645 l0 -2935 1100 0 1100 0 0 2935 0 2935 -1100 0 -1100 0 0
-2935z"/>
<path d="M12841 2708 c-80 -205 -121 -310 -121 -314 0 -5 34 -18 71 -27 28 -7
42 16 226 356 2 4 -34 7 -82 7 -79 0 -86 -2 -94 -22z"/>
<path d="M38071 2708 c-80 -205 -121 -310 -121 -314 0 -5 34 -18 71 -27 28 -7
42 16 226 356 2 4 -34 7 -82 7 -79 0 -86 -2 -94 -22z"/>
<path d="M10765 2244 c-11 -2 -45 -9 -75 -15 -30 -6 -96 -30 -145 -54 -199
-95 -346 -287 -407 -532 -19 -74 -22 -116 -22 -258 0 -208 19 -298 96 -455 44
-88 65 -118 132 -185 90 -89 191 -149 306 -181 99 -28 335 -25 455 4 89 22
175 51 175 59 0 4 -51 106 -55 111 -2 2 -38 -8 -80 -22 -193 -65 -380 -61
-533 11 -86 40 -209 167 -256 264 -97 204 -113 468 -40 681 68 202 215 359
391 420 59 20 86 23 203 22 125 0 142 -3 229 -32 52 -18 95 -31 96 -30 4 7 45
107 45 111 0 10 -109 48 -180 63 -73 15 -295 28 -335 18z"/>
<path d="M12706 2240 c-153 -28 -284 -97 -396 -210 -181 -181 -258 -398 -247
-690 6 -155 28 -255 82 -369 94 -198 244 -333 442 -399 68 -22 96 -26 218 -26
120 -1 150 2 215 22 273 86 457 286 536 582 24 89 35 245 25 351 -13 138 -36
220 -94 339 -44 91 -63 117 -141 196 -74 73 -107 99 -176 133 -47 23 -110 48
-140 57 -67 18 -256 26 -324 14z m308 -163 c244 -90 406 -356 406 -672 0 -309
-134 -560 -357 -672 -314 -157 -662 -5 -790 345 -86 233 -64 529 54 732 81
138 232 253 376 286 90 20 225 12 311 -19z"/>
<path d="M31355 2244 c-11 -2 -45 -9 -75 -15 -30 -6 -96 -30 -145 -54 -199
-95 -346 -287 -407 -532 -19 -74 -22 -116 -22 -258 0 -208 19 -298 96 -455 44
-88 65 -118 132 -185 90 -89 191 -149 306 -181 99 -28 335 -25 455 4 89 22
175 51 175 59 0 4 -51 106 -55 111 -2 2 -38 -8 -80 -22 -193 -65 -380 -61
-533 11 -86 40 -209 167 -256 264 -97 204 -113 468 -40 681 68 202 215 359
391 420 59 20 86 23 203 22 125 0 142 -3 229 -32 52 -18 95 -31 96 -30 4 7 45
107 45 111 0 10 -109 48 -180 63 -73 15 -295 28 -335 18z"/>
<path d="M37936 2240 c-153 -28 -284 -97 -396 -210 -181 -181 -258 -398 -247
-690 6 -155 28 -255 82 -369 94 -198 244 -333 442 -399 68 -22 96 -26 218 -26
120 -1 150 2 215 22 273 86 457 286 536 582 24 89 35 245 25 351 -13 138 -36
220 -94 339 -44 91 -63 117 -141 196 -74 73 -107 99 -176 133 -47 23 -110 48
-140 57 -67 18 -256 26 -324 14z m308 -163 c244 -90 406 -356 406 -672 0 -309
-134 -560 -357 -672 -314 -157 -662 -5 -790 345 -86 233 -64 529 54 732 81
138 232 253 376 286 90 20 225 12 311 -19z"/>
<path d="M18848 2218 c-32 -6 -58 -15 -58 -21 0 -7 443 -1166 617 -1615 4 -9
27 -12 86 -10 l81 3 298 820 c164 451 298 821 298 823 0 1 -33 2 -73 2 l-73 0
-264 -720 c-146 -396 -267 -720 -270 -720 -3 0 -129 326 -280 725 -200 527
-279 724 -290 723 -8 0 -41 -5 -72 -10z"/>
<path d="M39008 2218 c-32 -6 -58 -15 -58 -21 0 -7 443 -1166 617 -1615 4 -9
27 -12 86 -10 l81 3 298 820 c164 451 298 821 298 823 0 1 -33 2 -73 2 l-73 0
-264 -720 c-146 -396 -267 -720 -270 -720 -3 0 -129 326 -280 725 -200 527
-279 724 -290 723 -8 0 -41 -5 -72 -10z"/>
<path d="M2000 1396 l0 -826 75 0 75 0 0 345 0 345 195 2 c107 1 207 2 221 2
24 1 41 -26 218 -344 l192 -345 88 -3 88 -3 -19 33 c-76 128 -404 710 -402
712 2 1 31 18 64 36 146 83 225 225 225 405 0 185 -83 326 -233 395 -124 58
-156 63 -484 67 l-303 5 0 -826z m587 678 c195 -40 274 -132 276 -319 1 -190
-74 -290 -263 -350 -42 -13 -103 -19 -252 -22 l-198 -5 0 356 0 356 180 0
c126 0 204 -5 257 -16z"/>
<path d="M3410 1395 l0 -825 471 0 472 0 -7 31 c-3 17 -6 44 -6 60 l0 29 -390
0 -390 0 0 335 0 335 295 0 295 0 0 24 c0 13 -3 38 -6 55 l-6 31 -289 0 -289
0 0 320 0 320 396 0 397 0 -7 31 c-3 17 -6 42 -6 55 l0 24 -465 0 -465 0 0
-825z"/>
<path d="M4620 1396 l0 -826 75 0 75 0 0 319 0 319 208 5 c231 5 279 14 402
74 183 89 274 263 256 489 -14 184 -89 300 -241 374 -118 58 -154 63 -477 68
l-298 4 0 -826z m640 665 c159 -56 224 -155 223 -341 -2 -201 -106 -320 -320
-365 -43 -9 -128 -15 -230 -15 l-163 0 0 376 0 376 213 -4 c188 -4 219 -7 277
-27z"/>
<path d="M6350 2218 c-1 -2 -135 -372 -298 -823 l-298 -820 69 -3 c38 -2 71
-1 74 2 3 2 44 112 93 243 l88 238 359 3 359 2 96 -247 95 -248 59 4 c32 1 66
6 75 10 15 5 -23 112 -296 821 l-312 815 -82 3 c-44 2 -81 2 -81 0z m396
-1035 c-2 -2 -142 -2 -313 -1 l-310 3 129 345 c70 190 140 376 154 414 l27 68
158 -413 c87 -227 157 -414 155 -416z"/>
<path d="M7390 1396 l0 -826 75 0 75 0 0 345 0 345 195 2 c107 1 207 2 221 2
24 1 41 -26 218 -344 l192 -345 88 -3 88 -3 -19 33 c-76 128 -404 710 -402
712 2 1 31 18 64 36 146 83 225 225 225 405 0 185 -83 326 -233 395 -124 58
-156 63 -484 67 l-303 5 0 -826z m587 678 c195 -40 274 -132 276 -319 1 -190
-74 -290 -263 -350 -42 -13 -103 -19 -252 -22 l-198 -5 0 356 0 356 180 0
c126 0 204 -5 257 -16z"/>
<path d="M9180 2218 c-1 -2 -135 -372 -298 -823 l-298 -820 69 -3 c38 -2 71
-1 74 2 3 2 44 112 93 243 l88 238 359 3 359 2 96 -247 95 -248 59 4 c32 1 66
6 75 10 15 5 -23 112 -296 821 l-312 815 -82 3 c-44 2 -81 2 -81 0z m396
-1035 c-2 -2 -142 -2 -313 -1 l-310 3 129 345 c70 190 140 376 154 414 l27 68
158 -413 c87 -227 157 -414 155 -416z"/>
<path d="M11570 1395 l0 -825 75 0 75 0 0 825 0 825 -75 0 -75 0 0 -825z"/>
<path d="M13920 1396 l0 -826 75 0 75 0 0 678 c1 648 1 675 18 641 9 -20 222
-325 472 -678 l455 -640 53 -1 52 0 0 825 0 825 -75 0 -75 0 0 -660 c0 -363
-3 -660 -7 -660 -5 0 -21 25 -38 56 -16 31 -226 326 -465 657 l-435 602 -53 3
-52 3 0 -825z"/>
<path d="M20420 1395 l0 -825 471 0 472 0 -7 31 c-3 17 -6 44 -6 60 l0 29
-390 0 -390 0 0 335 0 335 295 0 295 0 0 24 c0 13 -3 38 -6 55 l-6 31 -289 0
-289 0 0 320 0 320 396 0 397 0 -7 31 c-3 17 -6 42 -6 55 l0 24 -465 0 -465 0
0 -825z"/>
<path d="M21640 1396 l0 -826 75 0 75 0 0 678 c1 648 1 675 18 641 9 -20 222
-325 472 -678 l455 -640 53 -1 52 0 0 825 0 825 -75 0 -75 0 0 -660 c0 -363
-3 -660 -7 -660 -5 0 -21 25 -38 56 -16 31 -226 326 -465 657 l-435 602 -53 3
-52 3 0 -825z"/>
<path d="M23090 2160 l0 -60 285 0 285 0 0 -765 0 -765 80 0 80 0 0 765 0 765
280 0 280 0 0 38 c0 20 -3 47 -6 60 l-6 22 -639 0 -639 0 0 -60z"/>
<path d="M25030 2218 c-1 -2 -135 -372 -298 -823 l-298 -820 69 -3 c38 -2 71
-1 74 2 3 2 44 112 93 243 l88 238 359 3 359 2 96 -247 95 -248 59 4 c32 1 66
6 75 10 15 5 -23 112 -296 821 l-312 815 -82 3 c-44 2 -81 2 -81 0z m396
-1035 c-2 -2 -142 -2 -313 -1 l-310 3 129 345 c70 190 140 376 154 414 l27 68
158 -413 c87 -227 157 -414 155 -416z"/>
<path d="M29480 1396 l0 -826 75 0 75 0 0 319 0 319 208 5 c231 5 279 14 402
74 183 89 274 263 256 489 -14 184 -89 300 -241 374 -118 58 -154 63 -477 68
l-298 4 0 -826z m640 665 c159 -56 224 -155 223 -341 -2 -201 -106 -320 -320
-365 -43 -9 -128 -15 -230 -15 l-163 0 0 376 0 376 213 -4 c188 -4 219 -7 277
-27z"/>
<path d="M35570 1395 l0 -825 75 0 75 0 2 658 3 659 250 -370 c138 -203 253
-374 256 -380 4 -5 18 -7 31 -4 19 5 85 97 274 381 137 207 252 376 257 376 4
0 7 -297 7 -660 l0 -660 75 0 75 0 0 826 0 825 -52 -3 -53 -3 -285 -417 c-157
-230 -290 -422 -296 -428 -8 -8 -97 113 -309 420 l-299 430 -43 0 -43 0 0
-825z"/>
<path d="M40590 1395 l0 -825 75 0 75 0 0 825 0 825 -75 0 -75 0 0 -825z"/>
<path d="M41200 1395 l0 -825 476 0 477 0 -7 31 c-3 17 -6 44 -6 60 l0 29
-395 0 -395 0 0 765 0 765 -75 0 -75 0 0 -825z"/>
<path d="M17138 1617 c-100 -38 -175 -104 -225 -199 -26 -49 -28 -62 -28 -163
0 -102 2 -114 30 -168 39 -78 127 -159 202 -187 81 -30 196 -30 278 1 84 31
183 130 214 214 19 51 22 74 19 155 -4 82 -9 103 -35 155 -36 71 -99 132 -175
171 -45 23 -68 28 -148 31 -63 2 -107 -1 -132 -10z"/>
<path d="M27394 1612 c-64 -22 -143 -80 -177 -129 -55 -80 -71 -132 -72 -229
0 -84 2 -95 38 -166 76 -155 223 -230 398 -206 275 37 412 373 244 600 -41 56
-123 113 -190 134 -65 19 -178 17 -241 -4z"/>
<path d="M33620 1621 c-100 -32 -203 -121 -241 -207 -102 -230 42 -500 284
-533 171 -23 322 55 404 210 26 49 28 63 28 159 0 99 -2 110 -32 171 -39 79
-102 140 -181 177 -47 22 -74 27 -147 29 -49 1 -101 -1 -115 -6z"/>
</g>
</svg>
